<svg xmlns="http://www.w3.org/2000/svg" width="85" height="24" fill="none"><path fill="#08B7AC" d="m17.508 3.22-8.02 20.546H7.99L0 3.22h1.466L8.74 22.215 16.071 3.22h1.437ZM21.449 4.332c-.32 0-.589-.098-.808-.293-.22-.215-.33-.498-.33-.849a1.112 1.112 0 0 1 1.137-1.141 1.112 1.112 0 0 1 1.138 1.141c0 .351-.11.634-.33.849-.219.195-.488.293-.807.293Zm.658 3.541v15.893h-1.346V7.873h1.346ZM28.391 12.059c.499-1.288 1.347-2.342 2.544-3.161 1.197-.82 2.644-1.23 4.34-1.23 1.516 0 2.863.332 4.04.995a6.895 6.895 0 0 1 2.783 2.84c.679 1.229 1.018 2.663 1.018 4.302 0 1.639-.34 3.083-1.018 4.332a7.085 7.085 0 0 1-2.783 2.868c-1.177.663-2.524.995-4.04.995-1.696 0-3.153-.41-4.37-1.23-1.197-.819-2.035-1.872-2.514-3.16v4.156h-1.347V2.107h1.347v9.951Zm13.348 3.746c0-1.444-.28-2.693-.838-3.746-.559-1.054-1.347-1.854-2.364-2.4-.998-.566-2.155-.85-3.472-.85-1.257 0-2.394.293-3.412.879-1.017.566-1.815 1.385-2.394 2.458-.579 1.054-.868 2.273-.868 3.659 0 1.405.29 2.644.868 3.717a6.243 6.243 0 0 0 2.394 2.459c1.018.565 2.155.848 3.412.848 1.317 0 2.474-.283 3.472-.849a5.85 5.85 0 0 0 2.364-2.429c.559-1.053.838-2.302.838-3.746ZM61.817 14.751c0 .703-.02 1.23-.06 1.58H47.72c.04 1.425.36 2.625.958 3.6.599.976 1.387 1.708 2.364 2.196.978.488 2.045.732 3.203.732 1.596 0 2.933-.381 4.01-1.142 1.078-.78 1.756-1.834 2.035-3.16h1.407c-.32 1.619-1.137 2.936-2.454 3.95C57.926 23.502 56.26 24 54.245 24c-1.517 0-2.873-.332-4.07-.995-1.198-.663-2.136-1.61-2.814-2.84-.678-1.248-1.017-2.702-1.017-4.36 0-1.659.329-3.103.987-4.332.679-1.23 1.616-2.166 2.813-2.81 1.198-.663 2.564-.995 4.1-.995 1.557 0 2.904.332 4.041.995 1.157.644 2.035 1.513 2.634 2.605a7.033 7.033 0 0 1 .898 3.483Zm-1.347.498c.06-1.405-.2-2.595-.778-3.571-.559-.976-1.327-1.698-2.305-2.166a7.006 7.006 0 0 0-3.172-.732 7.007 7.007 0 0 0-3.173.732c-.957.468-1.745 1.19-2.364 2.166-.599.976-.918 2.166-.958 3.57h12.75Z"/><path fill="#FDCC50" d="M77.15 11.732 85 23.766h-5.69L74.063 15.7l-4.94 8.066h-5.248l7.85-11.689L63.874 0h5.69l5.248 8.066L79.752 0H85l-7.85 11.732Z"/></svg>