<svg xmlns="http://www.w3.org/2000/svg" width="311" height="260" fill="none"><path fill="#DCFAF2" d="M256.277 251.225c10.883-16.542 13.957-38.097 8.225-57.062-3.656-12.031-10.634-23.143-11.548-35.675-1.744-25.064 20.769-45.282 25.421-69.928 2.077-10.861-.166-23.477-8.972-29.993-8.723-6.517-21.101-5.18-30.904-.585-9.803 4.511-18.194 11.863-27.581 17.127-9.471 5.347-21.102 8.605-31.071 4.344-10.135-4.26-15.867-15.122-19.024-25.649-3.24-10.526-4.818-21.805-10.301-31.33-9.056-15.79-28.246-24.312-46.191-22.14-17.944 2.256-33.978 14.37-42.618 30.412-8.64 15.957-10.135 35.34-5.815 52.968 2.16 8.94 5.732 17.545 7.726 26.568 1.91 9.023 2.16 18.881-2.243 26.985-9.138 16.96-33.147 19.3-45.692 33.92-10.384 12.031-10.716 30.328-4.818 45.116 5.898 14.787 16.947 26.734 27.997 38.18 51.507 1.755 103.928 1.838 155.435 3.593 19.938.668 41.953-5.681 61.974-6.851Z"/><path fill="#08B7AC" d="M206.063 245.359c.405 2.156 1.08 4.042 1.89 5.929h44.552c1.755-4.178 1.755-8.49-.81-12.263-16.201-23.043 3.78-22.639 7.02-38.405 3.511-17.249-13.095-8.355-7.965-31.533 6.75-31.397-7.965-46.49-15.391-28.298-7.02 17.114-3.375 24.121-20.656 36.923-14.31 10.645 10.666 27.624-3.51 44.469-6.075 7.142-6.48 15.766-5.13 23.178Z"/><path fill="#0050DB" d="M225.234 251.288c4.995-40.696 13.906-85.165 14.041-85.704.135-.674-.27-1.213-.945-1.348-.675-.134-1.215.27-1.35.944-.135.539-9.046 45.277-14.176 86.242h2.43v-.134Z"/><path fill="#3ADABD" d="M265.392 251.288c-.135-.27-.135-.674-.27-.943-11.746-34.363 12.825-26.547 22.411-44.874 10.53-20.078-13.096-14.957 1.485-41.774 19.711-36.383 7.02-60.235-8.776-40.561-14.85 18.596-12.96 28.568-38.747 38.136-21.466 7.95 3.106 38.001-20.386 53.632-9.99 6.738-13.635 17.114-14.58 26.816-.27 3.369-.135 6.603.54 9.568h58.323Z"/><path fill="#08B7AC" d="M230.153 251.288c20.521-47.029 45.902-95.541 46.307-96.215.405-.674.135-1.617-.675-1.886-.675-.405-1.62-.135-1.89.673-.405.674-26.191 49.994-46.847 97.563h3.105v-.135Z"/><path fill="#3ADABD" d="m192.509 199.816-1.438-.289 3.335-5.726c.115-2.255 0-6.535-1.897-11.682-2.818-7.576-2.933-12.55.46-11.914 4.369.868 5.577 12.203 3.047 20.936l7.877-13.649c.115-1.908.057-5.667-1.897-10.757-2.53-6.708-4.025-14.284.345-13.07 4.427 1.215 5.634 12.666 2.874 21.398l6.555-11.393c.115-1.214.057-3.585-1.15-6.766-1.61-4.222-2.53-8.964.23-8.213 2.76.752 3.565 7.981 1.782 13.533l1.38-2.429c2.3-7.634 9.2-15.268 12.362-13.937 3.105 1.33-.978 5.667-6.037 9.311-2.185 1.561-3.737 3.412-4.772 4.742l-2.703 4.685c3.91-3.297 9.085-5.263 10.81-3.47 2.012 2.024-2.53 3.585-6.957 4.279-2.358.405-4.083 1.041-5.29 1.677l-8.337 14.459c6.267-6.015 15.581-9.832 18.629-6.825 3.219 3.239-4.082 5.668-11.097 6.825-4.542.694-7.589 2.139-9.372 3.18l-6.497 11.22c6.21-6.709 16.616-11.22 19.779-8.039 3.219 3.239-4.082 5.668-11.097 6.825-5.232.867-8.509 2.602-10.119 3.643l-.805 1.446Z"/><path fill="#08B7AC" d="M98.183 246.063c-.37 2.202-.987 4.13-1.726 6.057H55.782c-1.602-4.268-1.602-8.673.74-12.528 14.79-23.543-3.451-23.13-6.41-39.238-3.204-17.622 11.956-8.536 7.273-32.216-6.163-32.078 7.272-47.498 14.05-28.912 6.41 17.485 3.082 24.644 18.86 37.723 13.064 10.877-9.738 28.224 3.204 45.433 5.546 7.297 5.916 16.108 4.684 23.681Z"/><path fill="#25D6B6" d="M80.68 252.12c-4.561-41.578-12.696-87.011-12.82-87.561-.123-.689.247-1.239.863-1.377.617-.138 1.11.275 1.233.964.123.55 8.258 46.259 12.942 88.112h-2.219v-.138Z"/><path fill="#3ADABD" d="M31.253 252.12c.123-.275.123-.688.246-.963 10.724-35.108-11.71-27.122-20.46-45.846-9.614-20.514 11.956-15.282-1.356-42.68-17.996-37.172-6.41-61.541 8.012-41.44 13.558 18.999 11.832 29.187 35.374 38.962 19.598 8.123-2.835 38.825 18.612 54.795 9.121 6.884 12.45 17.485 13.312 27.397.246 3.442.123 6.747-.493 9.775H31.253Z"/><path fill="#08B7AC" d="M63.424 252.12c-18.735-48.049-41.908-97.612-42.278-98.3-.37-.689-.123-1.652.617-1.928.616-.413 1.479-.137 1.725.689.37.688 23.912 51.077 42.77 99.677h-2.834v-.138Z"/><path fill="#3ADABD" d="M102.515 210.25h2.066l-3.224-8.98c.414-3.159 1.736-9.229 5.704-16.048 5.952-9.978 7.44-16.963 2.48-16.963-6.448.084-11.077 15.799-9.671 28.771l-7.606-21.37c.33-2.744 1.406-8.066 5.456-14.718 5.291-8.814 9.341-19.124 2.893-18.542-6.53.582-11.242 16.38-9.589 29.518l-6.365-17.794c.165-1.746.91-5.072 3.39-9.313 3.306-5.571 5.951-12.057 1.818-11.724-4.133.332-7.11 10.394-6.035 18.709l-1.322-3.742c-1.24-11.392-9.01-24.031-13.806-22.95-4.794 1.081-.082 8.315 6.118 14.718 2.645 2.744 4.381 5.821 5.538 7.982l2.563 7.318c-4.63-5.738-11.49-9.812-14.384-7.733-3.39 2.328 2.645 5.737 8.763 7.899 3.224 1.164 5.538 2.578 7.026 3.742l8.019 22.617c-7.275-10.145-19.51-18.044-24.552-14.552-5.373 3.742 4.299 9.064 13.888 12.556 6.2 2.245 10.168 4.989 12.4 6.985l6.283 17.628c-7.027-11.143-20.502-20.289-25.957-16.547-5.374 3.741 4.298 9.063 13.887 12.555 7.192 2.578 11.408 5.904 13.392 7.817l.827 2.161Z"/><path fill="#DCEDF9" d="M264.353 260H31.306c-2.382 0-4.314-2.239-4.314-5s1.932-5 4.314-5h233.047c2.382 0 4.313 2.239 4.313 5s-1.931 5-4.313 5Z"/><path fill="#6B3C00" d="M102.953 170.791c-6.174-3.677-10.68-9.943-12.098-16.96-1.418-7.018.25-14.621 4.506-20.386 3.337-4.511 8.26-8.354 8.844-13.869.667-5.764-3.672-10.693-5.59-16.124-2.42-6.6-1.169-14.454 3.17-19.968 3.17-4.01 7.759-6.934 9.845-11.53 1.335-2.923 1.502-6.181 1.836-9.356.333-3.175 1.001-6.517 3.17-8.94 2.086-2.423 6.007-3.509 8.594-1.587 4.839-5.013 10.513-11.028 16.937-13.702 6.424-2.673 14.1-3.091 20.108.418 4.755 2.757 7.926 7.603 12.014 11.195 3.588 3.091 7.843 5.264 11.681 7.937 3.838 2.757 7.426 6.266 8.594 10.861 1.919 7.52-3.087 15.038-3.338 22.808-.25 7.52 4.089 14.454 5.006 21.973 1.002 7.603-1.585 15.289-5.673 21.806-4.005 6.516-9.512 11.947-14.851 17.377-2.17 9.775-9.429 16.71-18.606 20.72-9.178 4.01-19.44 4.679-29.452 4.344-8.177-.501-17.688-2.924-24.697-7.017Z"/><path fill="#593200" d="M114.133 150.99c-2.086-2.757-2.002-6.6-1.168-9.942.834-3.342 2.419-6.517 3.087-9.858.918-4.596.167-9.358-.751-13.869-.918-4.595-2.086-9.19-2.002-13.869.083-4.679 1.585-9.524 5.173-12.532 12.515-10.527 32.789-6.85 49.059-5.18 8.26.836 13.85 8.773 16.436 16.626 2.587 7.853 1.752 16.626-1.418 24.312-3.087 7.686-8.344 14.37-14.184 20.135-3.504 3.425-9.762.668-14.601 1.671-4.756.919-8.844 3.843-13.266 5.681-7.092 3.007-15.352 3.258-22.611.835-2.252-.835-4.004-1.754-3.754-4.01Z"/><path fill="#FFC582" d="M203.908 159.094c-5.84-7.603-14.35-13.2-23.695-15.54-4.255-1.086-8.76-1.504-12.932-2.84-1.168-.334-2.336-.836-3.504-1.421a75.286 75.286 0 0 1-2.42-19.8H136.661a75.286 75.286 0 0 1-2.42 19.8c-1.168.585-2.336 1.003-3.504 1.421-4.255 1.336-8.677 1.754-12.933 2.84-9.344 2.34-17.854 7.854-23.695 15.54-5.84 7.603-9.094 17.211-9.01 26.902v61.156l110.216-1.587c9.761-.167 17.604-8.104 17.604-17.879V186.08c.084-9.692-3.17-19.3-9.011-26.986Z"/><path fill="#fff" d="M161.023 243.142c2.086-5.514 2.253-11.53 3.087-17.378 1.502-11.279 5.089-22.056 7.759-33.084 2.587-11.028 4.923-23.059 2.086-34.004-16.103 1.922-32.372 1.922-48.392-.083-6.09 2.59-9.261 10.276-10.345 16.709-1.168 6.517-.334 13.2-.167 19.801.167 7.185-.584 14.453-.251 21.638.334 7.185 1.836 14.621 5.924 20.553 2.503 3.676 5.924 6.6 9.595 9.19l29.536-.418c.334-.919.834-1.922 1.168-2.924Z"/><path fill="#EDEDED" d="M115.051 181.067c1.168-6.517 4.255-14.203 10.346-16.71 16.103 2.006 32.372 2.006 48.392.084a45.22 45.22 0 0 1 1.251 8.188c.25-4.763-.083-9.441-1.251-13.953-16.103 1.922-32.373 1.922-48.392-.083-6.091 2.59-9.261 10.276-10.346 16.709-.584 3.593-.667 7.185-.501 10.778a51.25 51.25 0 0 1 .501-5.013ZM114.885 200.784v-.669c-.084 4.93-.418 9.943-.251 14.872.083-4.762.334-9.441.251-14.203Z"/><path fill="#94724C" d="M135.993 130.103c8.844-.083 17.688-2.506 25.447-6.85-.083-1.17-.083-2.423-.083-3.593H136.66c0 3.425-.25 6.934-.667 10.443Z"/><path fill="#FFC582" d="M125.647 87.662c-1.001-1.838-2.169-3.676-4.005-4.763-1.835-1.086-4.422-1.086-5.84.502-1.168 1.253-1.251 3.175-1.085 4.845.251 3.426 1.002 7.018 3.088 9.775 2.085 2.757 5.756 4.595 9.094 3.676.417-4.678 1.001-9.858-1.252-14.035Z"/><path fill="#D6A56D" d="M125.397 91.338c.084 0 .25 0 .334.083-.501-1.17-.918-2.256-1.585-3.342-.668-1.002-1.502-2.005-2.587-2.506-1.085-.585-2.419-.752-3.588-.25-1.084.5-2.002 1.67-1.835 2.924.667-.752 1.835-1.003 2.837-.836 1.001.167 1.835 1.002 2.169 2.005-.918.084-1.502 1.003-1.669 1.838-.167.836.084 1.755.417 2.59.167.501.418.92.835 1.337.334.334.834.585 1.335.585-.501.584-1.252 1.086-2.003 1.17 1.669.835 3.838.668 5.34-.335.25-1.838.167-3.592 0-5.263Z"/><path fill="#FFC582" d="M170.785 89.416c1.001-1.838 2.169-3.676 4.005-4.762 1.835-1.086 4.422-1.086 5.84.501 1.168 1.254 1.252 3.175 1.085 4.846-.251 3.425-1.002 7.018-3.087 9.775-2.086 2.757-5.757 4.595-9.095 3.676-.333-4.595-1.001-9.858 1.252-14.036Z"/><path fill="#D6A56D" d="M171.035 93.092c-.083 0-.25 0-.334.084.501-1.17.918-2.256 1.586-3.342.667-1.003 1.501-2.005 2.586-2.507 1.085-.584 2.42-.751 3.588-.25 1.084.501 2.002 1.67 1.835 2.924-.667-.752-1.835-1.003-2.836-.836-1.002.168-1.836 1.003-2.17 2.006.918.083 1.502 1.002 1.669 1.838.167.835-.084 1.754-.417 2.59a3.265 3.265 0 0 1-.835 1.336c-.417.418-.834.585-1.335.585.501.585 1.252 1.086 2.003 1.17-1.669.835-3.838.668-5.34-.334a27.71 27.71 0 0 1 0-5.264Z"/><path fill="#008069" d="M123.311 98.272c3.917 0 7.092-3.18 7.092-7.101 0-3.922-3.175-7.102-7.092-7.102s-7.092 3.18-7.092 7.102 3.175 7.101 7.092 7.101ZM173.622 98.272c3.916 0 7.092-3.18 7.092-7.101 0-3.922-3.176-7.102-7.092-7.102-3.917 0-7.092 3.18-7.092 7.102s3.175 7.101 7.092 7.101Z"/><path fill="#FFC582" d="M148.424 126.678c13.916 0 25.198-15.187 25.198-33.92 0-18.733-11.282-33.92-25.198-33.92-13.915 0-25.197 15.187-25.197 33.92 0 18.733 11.282 33.92 25.197 33.92Z"/><path fill="#6B3C00" d="M124.73 79.975c-.751-.334.584-1.754 2.586-2.255 5.423-1.504 11.43-2.09 15.936 1.253.167.919-1.001 2.088-2.003 2.172-.917.084-1.835-.25-2.753-.585-4.338-1.587-9.261-1.67-13.766-.585ZM171.869 79.975c.751-.334-.584-1.754-2.586-2.255-5.423-1.504-11.431-2.09-15.936 1.253-.167.919 1.001 2.088 2.002 2.172.918.084 1.836-.25 2.754-.585 4.338-1.587 9.261-1.67 13.766-.585Z"/><path fill="#FFA866" d="M134.325 102.7c3.824 0 6.925-.785 6.925-1.754 0-.97-3.101-1.755-6.925-1.755-3.825 0-6.925.786-6.925 1.755 0 .969 3.1 1.754 6.925 1.754ZM162.107 102.7c3.825 0 6.925-.785 6.925-1.754 0-.97-3.1-1.755-6.925-1.755-3.824 0-6.925.786-6.925 1.755 0 .969 3.101 1.754 6.925 1.754Z"/><path fill="#fff" d="M134.491 98.021c-6.174 0-11.264-5.012-11.264-11.278 0-6.183 5.006-11.28 11.264-11.28 6.174 0 11.264 5.014 11.264 11.28a11.224 11.224 0 0 1-11.264 11.278Zm0-20.636c-5.173 0-9.428 4.261-9.428 9.441 0 5.18 4.255 9.441 9.428 9.441 5.173 0 9.428-4.26 9.428-9.44 0-5.264-4.172-9.442-9.428-9.442ZM162.692 98.021c-6.174 0-11.264-5.012-11.264-11.278 0-6.183 5.006-11.28 11.264-11.28 6.174 0 11.263 5.014 11.263 11.28 0 6.266-5.089 11.278-11.263 11.278Zm0-20.636c-5.173 0-9.428 4.261-9.428 9.441 0 5.18 4.255 9.441 9.428 9.441 5.173 0 9.428-4.26 9.428-9.44a9.424 9.424 0 0 0-9.428-9.442Z"/><path fill="#fff" d="m145.338 87.578-1.085-1.504c1.502-1.086 5.173-2.422 8.594 0l-1.085 1.504c-3.087-2.34-6.341-.083-6.424 0Z"/><path stroke="#D9D9D9" stroke-linecap="round" stroke-linejoin="round" stroke-miterlimit="10" stroke-width="2" d="M146.172 113.812c1.502.501 3.171.668 4.672.334"/><path fill="#6B3C00" d="M113.966 94.513c8.511-6.183 15.102-15.039 18.606-24.897 6.007 5.597 14.518 8.605 22.694 8.187-1.585-.752-2.837-2.172-3.754-3.676 7.843 1.838 14.684 6.684 19.857 12.866 2.086 2.507 3.921 5.347 6.258 7.603 2.419 2.256 5.59 4.01 8.844 3.676-2.003-8.689-4.005-17.628-7.259-25.983-2.003-5.096-4.339-10.276-8.594-13.785-5.173-4.344-12.515-5.514-19.273-5.013-7.259.501-14.351 2.757-20.608 6.517-8.427 5.096-15.018 13.2-18.439 22.474-.751 2.088-1.335 4.177-1.252 6.35.084 2.172 1.168 4.344 2.92 5.68Z"/><path fill="#FFEE3D" d="M120.975 102.366a2.337 2.337 0 0 0 2.336-2.339 2.338 2.338 0 0 0-2.336-2.34 2.338 2.338 0 0 0-2.336 2.34 2.337 2.337 0 0 0 2.336 2.339ZM175.958 102.366a2.337 2.337 0 0 0 2.336-2.339 2.338 2.338 0 0 0-2.336-2.34 2.338 2.338 0 0 0-2.336 2.34 2.337 2.337 0 0 0 2.336 2.339Z"/><path fill="#453E18" d="M135.075 83.4c-.834 0-1.502.67-1.919 1.672l1.919 1.921-1.919 1.922c.417 1.002 1.085 1.67 1.919 1.67 1.251 0 2.336-1.586 2.336-3.592-.083-1.921-1.085-3.592-2.336-3.592ZM161.858 83.4c-.835 0-1.502.67-1.919 1.672l1.919 1.921-1.919 1.922c.417 1.002 1.084 1.67 1.919 1.67 1.251 0 2.336-1.586 2.336-3.592 0-1.921-1.085-3.592-2.336-3.592Z"/><path fill="#fff" d="M118.889 78.806c-.501-3.676-.083-7.52 1.085-11.195 1.251-3.677 3.17-7.102 5.84-9.943 2.587-2.924 5.924-5.263 9.512-6.85 3.587-1.588 7.592-2.423 11.597-2.423s7.926.835 11.597 2.423c3.588 1.587 6.925 3.926 9.512 6.85 2.67 2.841 4.672 6.35 5.84 9.943 1.168 3.675 1.585 7.519 1.085 11.195-.918-7.352-4.339-13.953-9.512-18.631-5.089-4.595-11.847-7.185-18.606-7.185-6.758 0-13.432 2.59-18.605 7.185-5.006 4.678-8.427 11.279-9.345 18.63Z"/><path fill="#FDCC50" d="M180.213 143.638c-3.588-.919-7.176-1.337-10.763-2.172a820.966 820.966 0 0 0-15.769 104.684l41.633-.585c9.762-.167 17.605-8.104 17.605-17.879V186.08c.083-9.608-3.087-19.216-9.011-26.902-5.84-7.687-14.351-13.201-23.695-15.54ZM129.318 141.215c-3.754 1.003-7.759 1.42-11.514 2.423-9.344 2.339-17.854 7.853-23.695 15.54-5.84 7.602-9.094 17.21-9.01 26.902v61.156l60.072-.919c-3.087-35.34-8.344-70.514-15.853-105.102Z"/><path fill="#FDCC50" d="M117.804 143.638c-1.335.334-2.586.752-3.838 1.17-2.92 8.271-5.59 16.542-7.926 24.897 4.506 2.589 8.928 5.931 13.85 7.936-1.752 4.345-3.671 9.191-5.506 13.535 9.094 17.461 16.937 36.593 23.278 55.141l7.509-.084c-3.671-35.089-10.096-69.928-19.023-104.266-2.837.501-5.59.919-8.344 1.671ZM184.468 191.176c-1.752-4.344-3.588-9.19-5.34-13.535 4.84-2.088 9.095-5.347 13.6-7.937-2.253-8.271-4.839-16.458-7.676-24.562a46.45 46.45 0 0 0-4.839-1.504c-2.586-.668-5.34-1.086-7.926-1.587-8.761 34.337-15.018 69.093-18.606 104.099l8.177-.084c6.174-18.464 13.766-37.429 22.61-54.89Z" opacity=".18"/><path fill="#FFAA01" d="M129.318 141.215c-3.087.836-6.258 1.253-9.428 1.922a477.57 477.57 0 0 0-7.008 26.567c3.754 2.59 7.342 5.932 11.43 7.937-1.502 4.345-3.004 9.191-4.505 13.535 7.509 17.461 13.933 36.593 19.189 55.141l6.174-.084c-3.087-35.256-8.343-70.43-15.852-105.018ZM179.629 143.471c-3.337-.836-6.842-1.253-10.179-2.089a821.144 821.144 0 0 0-15.769 104.684l6.842-.083c5.256-18.464 11.597-37.429 19.106-54.807-1.502-4.344-3.004-9.19-4.505-13.535 4.088-2.088 7.675-5.347 11.43-7.937-2.086-8.772-4.422-17.544-6.925-26.233Z"/><path fill="#FFEE3D" d="M131.488 141.633a1.54 1.54 0 0 1-1.002-.418c-.083-.083-.083-.167-.167-.25-.083-.084-.083-.167-.083-.251 0-.083-.083-.167-.083-.251v-.501c0-.083.083-.167.083-.25 0-.084.083-.168.083-.251.084-.084.084-.167.167-.251.334-.334.835-.417 1.252-.334.083 0 .167.084.25.084.084 0 .167.083.25.167.084.083.167.083.251.167.083.083.083.167.167.25.083.084.083.168.166.251 0 .084.084.167.084.251v.501c0 .084-.084.167-.084.251 0 .083-.083.167-.166.25-.084.084-.084.167-.167.251-.084.083-.167.083-.251.167-.083.084-.166.084-.25.167-.083 0-.167.084-.25.084-.084-.084-.167-.084-.25-.084Z"/><path fill="#FFEE3D" d="M147.423 149.486c-.667 0-1.251-.585-1.335-1.253-.167.668-.834 1.086-1.501 1.003a1.351 1.351 0 0 1-1.169-1.337c-.25.668-.917 1.002-1.585.919-.667-.167-1.168-.752-1.084-1.42-.251.584-1.002.919-1.669.751-.668-.167-1.085-.919-.918-1.587-.334.585-1.085.836-1.752.501-.668-.334-.918-1.086-.668-1.754-.5.501-1.251.585-1.835.167-.584-.418-.668-1.253-.334-1.838-.584.418-1.418.251-1.835-.334-.418-.585-.334-1.504.25-1.922.584-.418 1.502-.334 1.919.251.334.501.334 1.086.083 1.587.501-.334 1.085-.334 1.586.084.5.334.667 1.002.417 1.587.417-.418 1.084-.585 1.585-.334.584.251.834.919.751 1.504.334-.501.918-.752 1.585-.585.584.167 1.001.752 1.001 1.42.251-.585.918-.919 1.502-.752.668.084 1.085.669 1.085 1.337.25-.585.834-1.002 1.418-.919.668.084 1.168.585 1.168 1.253.167-.585.751-1.002 1.419-1.002.667 0 1.168.501 1.251 1.086.084-.585.668-1.086 1.252-1.086.667 0 1.168.417 1.418 1.002.084-.585.501-1.169 1.168-1.253.668-.083 1.252.251 1.502.836 0-.585.417-1.17 1.001-1.337.584-.167 1.252.167 1.585.668-.083-.585.251-1.253.835-1.42.584-.251 1.251 0 1.585.501-.167-.585.083-1.253.667-1.504.585-.334 1.252-.167 1.669.334-.25-.584 0-1.253.501-1.587a1.378 1.378 0 0 1 1.668.084c-.333-.502-.166-1.254.251-1.671.584-.502 1.418-.502 1.919.083.5.585.5 1.421-.084 1.922-.5.501-1.251.501-1.835.083.333.585.167 1.337-.417 1.755-.584.418-1.335.334-1.836-.167.25.668 0 1.337-.667 1.671-.584.334-1.419.167-1.753-.418a1.323 1.323 0 0 1-.834 1.587c-.667.251-1.418 0-1.669-.668.084.668-.333 1.337-1.001 1.504a1.321 1.321 0 0 1-1.585-.836 1.35 1.35 0 0 1-1.168 1.337c-.668.084-1.335-.334-1.502-1.002-.083.668-.584 1.253-1.335 1.253-.667 0-1.251-.418-1.418-1.086 0 .584-.584 1.002-1.252 1.002ZM166.697 141.633c-.334 0-.751-.167-1.001-.418a1.383 1.383 0 0 1-.418-1.002c0-.335.167-.752.418-1.003.5-.501 1.418-.501 1.919 0 .25.251.417.585.417 1.003 0 .417-.167.751-.417 1.002-.251.334-.584.418-.918.418Z"/><path fill="#10837C" d="M140.165 115.733c-2.67-.167-5.34-.334-7.927-.919-3.003-.668-5.423-1.921-7.258-3.592-2.837-2.674-4.089-6.266-4.589-8.856-.668-3.258-.584-6.6-.584-9.859 0-.417.417-.752.751-.752.417 0 .75.335.75.752-.083 3.175-.083 6.433.501 9.525.501 2.339 1.585 5.681 4.172 8.104 1.668 1.504 3.838 2.59 6.591 3.258 2.503.585 5.09.752 7.676.919.417 0 .751.418.667.836 0 .25-.333.584-.75.584Z"/><path fill="#006385" d="M139.581 116.903c1.566 0 2.836-.898 2.836-2.005 0-1.107-1.27-2.005-2.836-2.005-1.567 0-2.837.898-2.837 2.005 0 1.107 1.27 2.005 2.837 2.005Z"/><path fill="#FDCC50" d="M96.112 158.175c-8.51 8.772-14.435 19.884-18.523 31.414-4.088 11.529-6.508 23.56-8.927 35.59-.668 3.426-1.419 7.018-.5 10.444 1.751 7.018 9.51 10.777 16.686 11.613 7.175.835 14.517-.334 21.609 1.002 5.173-29.826 3.004-62.827-10.345-90.063Z"/><path fill="#FFC582" d="M120.391 232.364c5.256-1.503 10.596-3.091 16.019-3.676 5.423-.585 11.097-.083 16.103 2.34 4.922 2.339 9.011 6.85 10.179 12.197.334 1.671-2.92 2.173-4.589 2.674-1.669.501-3.421.418-5.173.251-5.84-.335-11.597-.669-17.438-1.003-4.171-.251-8.677.752-12.181-1.504-1.752-1.17-2.753-3.175-3.171-5.18-.5-1.921.167-4.01.251-6.099Z"/><path fill="#FDCC50" d="M84.347 223.425c15.185-.836 30.37-.919 45.555-.084 1.419 7.102 3.254 14.955 2.67 22.14-12.181 3.259-24.863 3.426-37.128.334-8.344-1.921-11.264-13.785-11.097-22.39Z"/><path fill="#FDCC50" d="M121.559 223.258c-5.257-2.757-11.514-4.428-17.355-5.013.918-8.689 1.168-17.461.584-26.15 2.253 7.018 3.838 14.203 3.755 21.555 5.089 1.838 10.095 4.929 13.016 9.608Z" opacity=".18"/><path fill="#DCEDF9" d="M246.867 245.875H73.491v1.421c0 1.921 1.586 3.509 3.505 3.509h166.367c1.919 0 3.504-1.588 3.504-3.509v-1.421Z"/><path fill="#D0D8ED" d="M246.867 245.875H73.491v1.421c0 1.921 1.586 3.509 3.505 3.509h166.367c1.919 0 3.504-1.588 3.504-3.509v-1.421Z"/><path fill="#D0D8ED" d="M133.898 247.296v-1.421H73.491v1.421c0 1.921 1.586 3.509 3.505 3.509h53.397c1.919 0 3.505-1.588 3.505-3.509Z"/><path fill="#fff" d="M246.867 245.876H133.898l25.197-69.344c.917-2.59 3.754-4.679 6.341-4.679h103.625c2.586 0 3.921 2.089 3.003 4.679l-25.197 69.344Z"/><path fill="#C5CCE0" d="M211.074 208.864c-1.418 4.011-5.923 7.269-9.928 7.269-4.005 0-6.091-3.258-4.589-7.269 1.418-4.01 5.924-7.268 9.929-7.268 4.004 0 6.09 3.258 4.588 7.268Z"/><path fill="#D0D8ED" d="M121.8 249.301h-3.921a.927.927 0 0 1-.918-.919c0-.501.417-.919.918-.919h3.921c.501 0 .918.418.918.919a.927.927 0 0 1-.918.919ZM113.874 249.301h-3.922a.926.926 0 0 1-.917-.919c0-.501.417-.919.917-.919h3.922c.501 0 .918.418.918.919-.084.501-.417.919-.918.919ZM105.864 249.301h-3.922a.926.926 0 0 1-.917-.919c0-.501.417-.919.917-.919h3.922c.5 0 .917.418.917.919a.926.926 0 0 1-.917.919Z"/><path fill="#D6D6D6" d="M107.822 241.364c-6.591 0-11.93-5.347-11.93-11.947 0-6.6 5.339-11.947 11.93-11.947 6.592 0 11.931 5.347 11.931 11.947 0 6.6-5.339 11.947-11.931 11.947Zm0-20.135c-4.505 0-8.176 3.676-8.176 8.188 0 4.511 3.671 8.187 8.176 8.187 4.506 0 8.177-3.676 8.177-8.187.083-4.512-3.671-8.188-8.177-8.188Z"/><path fill="#fff" d="M74.615 240.528c0 1.504.167 2.925.584 4.261 1.001 3.593 4.339 6.016 8.01 6.016h14.6c3.755 0 7.009-2.423 8.011-6.016.333-1.336.584-2.757.584-4.261v-24.312H74.615v24.312Z"/><path fill="#000" d="M97.893 216.216v24.312c0 1.504-.167 2.925-.584 4.261-1.001 3.593-4.338 6.016-8.01 6.016h8.51c3.755 0 7.009-2.423 8.01-6.016.334-1.336.585-2.757.585-4.261v-24.312h-8.51Z" opacity=".1"/><path fill="#3ADABD" d="M259.947 91.87h-29.035c-4.672 0-8.51 3.843-8.51 8.521v13.869c0 4.678 3.838 8.522 8.51 8.522h1.002l-2.003 2.757c-.667.919.334 2.088 1.335 1.671l9.261-3.927a7.118 7.118 0 0 1 2.587-.501h16.853c4.673 0 8.511-3.844 8.511-8.522v-13.869c0-4.678-3.755-8.522-8.511-8.522Z"/><path fill="#EDEDED" d="M262.617 102.313h-34.375a1.497 1.497 0 0 1-1.502-1.504c0-.836.668-1.504 1.502-1.504h34.375c.834 0 1.502.668 1.502 1.504 0 .835-.668 1.504-1.502 1.504ZM262.617 108.829h-34.375a1.497 1.497 0 0 1-1.502-1.503c0-.836.668-1.504 1.502-1.504h34.375c.834 0 1.502.668 1.502 1.504 0 .835-.668 1.503-1.502 1.503ZM247.599 115.43h-19.357a1.497 1.497 0 0 1-1.502-1.504c0-.836.668-1.504 1.502-1.504h19.357c.834 0 1.502.668 1.502 1.504 0 .835-.668 1.504-1.502 1.504Z"/><path fill="#fff" d="M28.316 64.741c1.668 0 3.047 1.388 3.047 3.065 0 1.678-1.38 3.066-3.047 3.066-1.667 0-3.047-1.388-3.047-3.066 0-1.677 1.38-3.065 3.047-3.065Zm0 .983c-1.15 0-2.07.926-2.07 2.082 0 1.157.92 2.082 2.07 2.082s2.07-.925 2.07-2.082c0-1.156-.92-2.082-2.07-2.082Z"/><path fill="#FFAA01" d="M17.22 54.62c1.667 0 3.047 1.388 3.047 3.066 0 1.677-1.38 3.065-3.048 3.065-1.667 0-3.047-1.388-3.047-3.066 0-1.677 1.322-3.065 3.047-3.065Zm0 .983c-1.15 0-2.07.926-2.07 2.082 0 1.157.92 2.082 2.07 2.082s2.07-.925 2.07-2.082c0-1.156-.92-2.082-2.07-2.082Z"/><path fill="#fff" d="M13.194 72.144c0 .289.23.462.46.462h2.128c.287 0 .46-.23.46-.462 0-.29-.23-.463-.46-.463h-2.127a.455.455 0 0 0-.46.463ZM9.457 72.144c0 .289.23.462.46.462h2.128c.287 0 .46-.23.46-.462 0-.29-.23-.463-.46-.463H9.917c-.23 0-.46.231-.46.463ZM12.39 69.194v1.909c0 .289.23.463.46.463.287 0 .46-.232.46-.463v-1.909c0-.289-.23-.462-.46-.462s-.46.173-.46.462ZM12.39 73.243v1.908c0 .29.23.463.46.463.287 0 .46-.232.46-.463v-1.908c0-.29-.23-.463-.46-.463s-.46.173-.46.463Z"/><path fill="#FFAA01" d="M35.503 55.603c0 .29.23.463.46.463h2.127c.288 0 .46-.231.46-.463 0-.289-.23-.462-.46-.462h-2.127c-.23-.058-.46.173-.46.462ZM31.823 55.603c0 .29.23.463.46.463h2.127c.288 0 .46-.231.46-.463 0-.289-.23-.462-.46-.462h-2.127c-.23-.058-.46.173-.46.462ZM34.698 52.596v1.909c0 .289.23.462.46.462.288 0 .46-.231.46-.462v-1.909c0-.289-.23-.462-.46-.462s-.46.23-.46.462ZM34.698 56.645v1.908c0 .29.23.463.46.463.287 0 .46-.232.46-.463v-1.908c0-.29-.23-.463-.46-.463s-.46.231-.46.463Z"/><path fill="#fff" d="M304.98 87.952c1.668 0 3.047 1.388 3.047 3.065s-1.379 3.065-3.047 3.065c-1.667 0-3.047-1.388-3.047-3.065a3.04 3.04 0 0 1 3.047-3.065Zm0 5.147c1.15 0 2.07-.925 2.07-2.082 0-1.157-.92-2.082-2.07-2.082s-2.07.925-2.07 2.082c0 1.157.92 2.082 2.07 2.082Z"/><path fill="#FFAA01" d="M293.999 77.195c1.667 0 3.047 1.388 3.047 3.065s-1.38 3.065-3.047 3.065c-1.667 0-3.047-1.388-3.047-3.065a3.04 3.04 0 0 1 3.047-3.065Zm0 5.147c1.15 0 2.07-.926 2.07-2.082 0-1.157-.92-2.082-2.07-2.082s-2.07.925-2.07 2.082c0 1.156.92 2.082 2.07 2.082Z"/><path fill="#fff" d="M290.262 67.19c.287 0 .46.23.46.462v2.14c0 .29-.23.463-.46.463a.455.455 0 0 1-.46-.463v-2.14c0-.231.172-.463.46-.463ZM290.262 63.488c.287 0 .46.231.46.463v2.14c0 .289-.23.462-.46.462a.455.455 0 0 1-.46-.462v-2.14c0-.232.172-.463.46-.463ZM287.272 66.38h1.897c.288 0 .46.231.46.462 0 .232-.23.463-.46.463h-1.897a.455.455 0 0 1-.46-.463c0-.23.23-.462.46-.462ZM291.296 66.38h1.897c.288 0 .46.231.46.462 0 .232-.23.463-.46.463h-1.897a.455.455 0 0 1-.46-.463c0-.23.23-.462.46-.462Z"/><path fill="#FFAA01" d="M307.108 79.103c.287 0 .459.232.459.463v2.14c0 .289-.23.462-.459.462a.455.455 0 0 1-.46-.462v-2.14c-.058-.29.172-.463.46-.463ZM307.107 75.402c.288 0 .46.231.46.463v2.14c0 .288-.23.462-.46.462a.455.455 0 0 1-.46-.463v-2.14c-.057-.289.173-.462.46-.462ZM304.118 78.293h1.898c.287 0 .459.232.459.463 0 .29-.229.463-.459.463h-1.898a.455.455 0 0 1-.46-.463c0-.231.23-.463.46-.463ZM308.143 78.293h1.897c.287 0 .46.232.46.463 0 .29-.23.463-.46.463h-1.897a.455.455 0 0 1-.46-.463c0-.231.23-.463.46-.463Z"/><path fill="#DCEDF9" d="M238.019 34.567h.196c.785-.329 1.178-.46 1.243-.46.262-.066.327-.33.262-.593-.066-.263-.327-.329-.589-.263 0 0-.458.132-1.309.526-.196.066-.327.33-.261.593.196.066.327.197.458.197ZM215.313 58.59c-.327.79-.589 1.645-.85 2.501a.493.493 0 0 1-.458.33h-.066c-.262-.067-.392-.33-.327-.593.262-.856.523-1.711.851-2.567.065-.263.327-.33.588-.263.262.131.393.395.262.592ZM213.808 63.658c-.197.856-.393 1.711-.524 2.567-.065.263-.261.395-.458.395h-.065c-.262-.066-.393-.264-.327-.527.131-.855.327-1.777.589-2.632.065-.264.327-.395.523-.33.131 0 .327.264.262.527ZM211.911 77.15c-.196 0-.393-.197-.393-.46V73.99c0-.263.197-.46.458-.46.262 0 .458.197.458.46v2.633c0 .329-.196.526-.523.526 0 0 .065 0 0 0ZM212.434 68.33c.262 0 .393.264.393.527-.065.395-.131.79-.131 1.185-.065.46-.065.921-.131 1.382 0 .263-.261.461-.458.395-.262 0-.392-.263-.392-.46.065-.461.065-.988.13-1.448.066-.395.066-.856.131-1.251 0-.197.262-.395.458-.33ZM216.361 56.155c-.066.197-.262.263-.458.263-.066 0-.066 0-.131-.066-.197-.131-.327-.394-.197-.592.393-.79.786-1.645 1.178-2.435.131-.198.393-.33.589-.198.196.132.327.395.196.593-.458.855-.85 1.645-1.177 2.435ZM235.925 35.62c-.785.395-1.505.79-2.29 1.25-.066.067-.197.067-.262.067a.359.359 0 0 1-.327-.198.43.43 0 0 1 .131-.592c.785-.46 1.57-.922 2.355-1.316.197-.132.458 0 .589.197.066.263 0 .526-.196.592ZM229.25 39.898c-.065.066-.196.132-.327.066a.359.359 0 0 1-.327-.197.509.509 0 0 1 .065-.658l2.16-1.58a.425.425 0 0 1 .589.132c.13.197.065.46-.131.592-.589.592-1.309 1.053-2.029 1.645ZM225.259 43.32c-.131.067-.262.133-.327.133-.131 0-.196-.066-.262-.132-.196-.198-.196-.46 0-.658.654-.593 1.309-1.25 1.963-1.843a.5.5 0 0 1 .654.066.509.509 0 0 1-.065.658c-.654.526-1.309 1.185-1.963 1.777ZM221.792 47.204c-.131.132-.262.197-.393.197-.065 0-.131-.065-.262-.065-.196-.132-.196-.461-.065-.659.523-.724 1.112-1.382 1.766-2.04.197-.197.458-.197.655 0 .196.197.196.46 0 .658-.589.527-1.178 1.25-1.701 1.909ZM218.781 51.548c-.065.131-.262.197-.458.197-.065 0-.131 0-.196-.066a.43.43 0 0 1-.131-.592c.458-.79.981-1.514 1.439-2.238a.425.425 0 0 1 .589-.131.43.43 0 0 1 .131.592c-.458.724-.916 1.448-1.374 2.238Z"/><path fill="#FDCC50" d="m238.084 31.474-1.963-7.24 23.883.198-21.92 7.042Z"/><path fill="#FFAA01" d="m260.004 24.432-20.808 8.819h-.065l-.851 1.514-.196-3.291 21.92-7.042Z"/><path fill="#F88800" d="m238.281 34.765 1.897-.33-1.047-1.184-.85 1.514Z"/><path fill="#FDCC50" d="m241.748 32.198-2.617 1.053 5.431 6.12 15.442-14.94-18.256 7.767Z"/></svg>